<svg xmlns:dc="http://purl.org/dc/elements/1.1/" xmlns:cc="http://creativecommons.org/ns#" xmlns:rdf="http://www.w3.org/1999/02/22-rdf-syntax-ns#" xmlns:svg="http://www.w3.org/2000/svg" xmlns="http://www.w3.org/2000/svg" xmlns:xlink="http://www.w3.org/1999/xlink" id="svg751470" version="1.1" viewBox="243.7 346.52 536.6 74.95">
  <metadata id="metadata751476">
    <rdf:rdf>
      <cc:work rdf:about="">
        <dc:format>image/svg+xml</dc:format>
        <dc:type rdf:resource="http://purl.org/dc/dcmitype/StillImage"/>
      </cc:work>
    </rdf:rdf>
  </metadata>
  <defs id="defs751474"/>
  <linearGradient spreadMethod="pad" y2="30%" x2="-10%" y1="120%" x1="30%" id="3d_gradient2-logo-eb8e70ea-e4bb-4893-906e-6e323226d3fc">
    <stop id="stop751451" stop-opacity="1" stop-color="#ffffff" offset="0%"/>
    <stop id="stop751453" stop-opacity="1" stop-color="#000000" offset="100%"/>
  </linearGradient>
  <linearGradient gradientTransform="rotate(-30)" spreadMethod="pad" y2="30%" x2="-10%" y1="120%" x1="30%" id="3d_gradient3-logo-eb8e70ea-e4bb-4893-906e-6e323226d3fc">
    <stop id="stop751456" stop-opacity="1" stop-color="#ffffff" offset="0%"/>
    <stop id="stop751458" stop-opacity="1" stop-color="#cccccc" offset="50%"/>
    <stop id="stop751460" stop-opacity="1" stop-color="#000000" offset="100%"/>
  </linearGradient>
  <g id="logo-group">
    <image xlink:href="" id="container" x="272" y="144" width="480" height="480" style="display: none;" transform="translate(0 0)"/>
    <g id="logo-center" transform="translate(0 0)">
      <image xlink:href="" id="icon_container" style="display: none;" x="64" y="0"/>
      <g id="slogan" style="font-style:normal;font-weight:300;font-size:32px;line-height:1;font-family:Comfortaa;font-variant-ligatures:none;text-align:center;text-anchor:middle" transform="translate(0 0)"/>
      <g id="title" style="font-style:normal;font-weight:800;font-size:72px;line-height:1;font-family:'Montserrat ExtraBold Alt1';font-variant-ligatures:none;text-align:center;text-anchor:middle" transform="translate(0 0)">
        <path id="path751479" style="font-style:normal;font-weight:800;font-size:72px;line-height:1;font-family:'Montserrat ExtraBold Alt1';font-variant-ligatures:none;text-align:center;text-anchor:middle" d="m 376.00381,-38.52 c -2.376,-3.744 -5.688,-6.696 -9.936,-8.784 -4.32,-2.016 -9.216,-3.096 -14.688,-3.096 h -23.832 v 11.376 h 23.256 c 4.32,0 7.776,1.224 10.368,3.672 2.592,2.52 3.96,5.904 3.96,10.152 0,4.32 -1.368,7.704 -3.96,10.152 -2.592,2.448 -6.048,3.672 -10.368,3.672 h -9 v -13.392 h -14.256 V 0 h 23.832 c 5.472,0 10.368,-1.008 14.688,-3.096 4.248,-2.016 7.56,-4.968 9.936,-8.784 2.304,-3.744 3.528,-8.208 3.528,-13.32 0,-5.04 -1.224,-9.504 -3.528,-13.32 z" stroke-width="0" stroke-linejoin="miter" stroke-miterlimit="2" fill="#d47332" stroke="#d47332" transform="translate(0 318.628) translate(243.70071875000002 29.336000000000013) scale(1.43) translate(-327.54781 50.4)"/>
        <path id="path751481" style="font-style:normal;font-weight:800;font-size:72px;line-height:1;font-family:'Montserrat ExtraBold Alt1';font-variant-ligatures:none;text-align:center;text-anchor:middle" d="m 411.92281,-18.072 19.296,-32.328 h -13.824 l -11.952,20.016 -11.952,-20.016 h -15.048 l 19.224,32.112 V 0 h 14.256 z" stroke-width="0" stroke-linejoin="miter" stroke-miterlimit="2" fill="#d47332" stroke="#d47332" transform="translate(0 318.628) translate(316.48056875 29.336000000000013) scale(1.43) translate(-378.44281 50.4)"/>
        <path id="path751483" style="font-style:normal;font-weight:800;font-size:72px;line-height:1;font-family:'Montserrat ExtraBold Alt1';font-variant-ligatures:none;text-align:center;text-anchor:middle" d="m 439.55169,-0.504 c 3.816,1.008 7.776,1.512 11.88,1.512 4.752,0 8.856,-0.72 12.24,-2.16 3.312,-1.44 5.832,-3.456 7.56,-5.904 1.656,-2.448 2.52,-5.184 2.52,-8.208 0,-3.456 -0.936,-6.264 -2.808,-8.28 -1.872,-2.016 -4.032,-3.528 -6.552,-4.464 -2.52,-0.936 -5.688,-1.8 -9.504,-2.664 -3.456,-0.72 -5.904,-1.368 -7.416,-2.088 -1.584,-0.648 -2.304,-1.656 -2.304,-3.024 0,-1.296 0.648,-2.376 1.944,-3.24 1.296,-0.864 3.312,-1.296 6.192,-1.296 4.464,0 9.144,1.296 13.968,3.888 l 4.392,-10.584 c -2.448,-1.44 -5.328,-2.52 -8.496,-3.24 -3.24,-0.72 -6.48,-1.152 -9.792,-1.152 -4.896,0 -9,0.72 -12.312,2.16 -3.312,1.44 -5.832,3.456 -7.488,5.904 -1.728,2.448 -2.52,5.256 -2.52,8.28 0,3.528 0.864,6.336 2.736,8.352 1.8,2.088 3.96,3.6 6.552,4.536 2.52,0.936 5.688,1.8 9.504,2.592 3.456,0.792 5.904,1.512 7.488,2.232 1.584,0.72 2.376,1.728 2.376,3.168 0,2.736 -2.736,4.104 -8.208,4.104 -2.88,0 -5.832,-0.432 -8.784,-1.368 -3.024,-0.864 -5.616,-2.088 -7.848,-3.6 l -4.68,10.512 c 2.376,1.728 5.472,3.024 9.36,4.032 z" stroke-width="0" stroke-linejoin="miter" stroke-miterlimit="2" fill="#d47332" stroke="#d47332" transform="translate(0 318.628) translate(390.4814671499999 27.89456) scale(1.43) translate(-430.19169 51.408)"/>
        <path id="path751485" style="font-style:normal;font-weight:800;font-size:72px;line-height:1;font-family:'Montserrat ExtraBold Alt1';font-variant-ligatures:none;text-align:center;text-anchor:middle" d="m 528.21856,-50.4 h -14.256 v 18.936 h -19.44 V -50.4 h -14.256 V 0 h 14.256 v -19.656 h 19.44 V 0 h 14.256 z" stroke-width="0" stroke-linejoin="miter" stroke-miterlimit="2" fill="#d47332" stroke="#d47332" transform="translate(0 318.628) translate(462.08853124999996 29.336000000000013) scale(1.43) translate(-480.26656 50.4)"/>
        <path id="path751487" style="font-style:normal;font-weight:800;font-size:72px;line-height:1;font-family:'Montserrat ExtraBold Alt1';font-variant-ligatures:none;text-align:center;text-anchor:middle" d="m 549.36069,-2.376 c 4.248,2.304 9.072,3.384 14.4,3.384 5.328,0 10.08,-1.08 14.328,-3.384 4.248,-2.232 7.56,-5.328 10.008,-9.36 2.448,-3.96 3.672,-8.424 3.672,-13.464 0,-4.968 -1.224,-9.432 -3.672,-13.464 -2.448,-3.96 -5.76,-7.056 -10.008,-9.36 -4.248,-2.232 -9,-3.384 -14.328,-3.384 -5.328,0 -10.152,1.152 -14.4,3.384 -4.248,2.304 -7.56,5.4 -10.008,9.36 -2.448,4.032 -3.6,8.496 -3.6,13.464 0,5.04 1.152,9.504 3.6,13.464 2.448,4.032 5.76,7.128 10.008,9.36 z m 21.312,-10.224 c -2.088,1.224 -4.392,1.8 -6.912,1.8 -2.592,0 -4.896,-0.576 -6.912,-1.8 -2.088,-1.152 -3.744,-2.88 -4.896,-5.04 -1.224,-2.16 -1.8,-4.68 -1.8,-7.56 0,-2.808 0.576,-5.328 1.8,-7.488 1.152,-2.16 2.808,-3.888 4.896,-5.112 2.016,-1.152 4.32,-1.8 6.912,-1.8 2.52,0 4.824,0.648 6.912,1.8 2.016,1.224 3.672,2.952 4.896,5.112 1.152,2.16 1.8,4.68 1.8,7.488 0,2.88 -0.648,5.4 -1.8,7.56 -1.224,2.16 -2.88,3.888 -4.896,5.04 z" stroke-width="0" stroke-linejoin="miter" stroke-miterlimit="2" fill="#d47332" stroke="#d47332" transform="translate(0 318.628) translate(541.43369715 27.89456) scale(1.43) translate(-535.75269 51.408)"/>
        <path id="path751489" style="font-style:normal;font-weight:800;font-size:72px;line-height:1;font-family:'Montserrat ExtraBold Alt1';font-variant-ligatures:none;text-align:center;text-anchor:middle" d="m 610.10731,-2.304 c 4.176,2.232 8.928,3.312 14.256,3.312 4.608,0 8.712,-0.792 12.456,-2.448 3.672,-1.584 6.768,-3.96 9.216,-7.056 l -9.072,-8.208 c -3.312,3.96 -7.272,5.904 -11.88,5.904 -2.736,0 -5.184,-0.576 -7.344,-1.8 -2.16,-1.152 -3.816,-2.88 -4.968,-5.04 -1.152,-2.16 -1.728,-4.68 -1.728,-7.56 0,-2.808 0.576,-5.328 1.728,-7.488 1.152,-2.16 2.808,-3.888 4.968,-5.112 2.16,-1.152 4.608,-1.8 7.344,-1.8 4.608,0 8.568,2.016 11.88,5.904 l 9.072,-8.208 c -2.448,-3.024 -5.544,-5.4 -9.216,-7.056 -3.744,-1.584 -7.848,-2.448 -12.456,-2.448 -5.328,0 -10.08,1.152 -14.256,3.384 -4.176,2.232 -7.488,5.328 -9.864,9.288 -2.448,4.032 -3.6,8.496 -3.6,13.536 0,5.04 1.152,9.576 3.6,13.536 2.376,4.032 5.688,7.128 9.864,9.36 z" stroke-width="0" stroke-linejoin="miter" stroke-miterlimit="2" fill="#d47332" stroke="#d47332" transform="translate(0 318.628) translate(628.50728375 27.89456) scale(1.43) translate(-596.64331 51.408)"/>
        <path id="path751491" style="font-style:normal;font-weight:800;font-size:72px;line-height:1;font-family:'Montserrat ExtraBold Alt1';font-variant-ligatures:none;text-align:center;text-anchor:middle" d="m 666.50356,-50.4 h -14.112 v 21.456 l 14.112,-15.336 z m 14.616,22.32 20.592,-22.32 h -15.696 l -19.512,20.952 -14.112,15.192 V 0 h 14.112 v -12.6 l 5.328,-5.688 14.4,18.288 h 16.56 z" stroke-width="0" stroke-linejoin="miter" stroke-miterlimit="2" fill="#d47332" stroke="#d47332" transform="translate(0 318.628) translate(708.2272812499999 29.336000000000013) scale(1.43) translate(-652.39156 50.4)"/>
      </g>
      <image xlink:href="https://app.brandmark.io/nounpreview/853966.png" id="icon" style="display: none;" x="64" y="0"/>
    </g>
  </g>
</svg>